<svg xmlns="http://www.w3.org/2000/svg" id="Layer_3" height="512" viewBox="0 0 64 64" width="512"><g><path d="m18.813 13.042.172.144c.002-.062.015-.123.015-.186 0-3.309-2.691-6-6-6s-6 2.691-6 6 2.691 6 6 6c.063 0 .123-.013.186-.015l-.143-.172c-1.366-1.639-1.258-4.012.25-5.52 1.509-1.509 3.882-1.616 5.52-.251z"></path><path d="m13 23c1.074 0 2.114-.177 3.111-.505l-1.415-1.699c-.557.121-1.121.204-1.696.204-4.411 0-8-3.589-8-8s3.589-8 8-8 8 3.589 8 8c0 .575-.083 1.139-.204 1.695l1.708 1.423c.329-1 .496-2.045.496-3.118 0-5.514-4.486-10-10-10s-10 4.486-10 10 4.486 10 10 10z"></path><path d="m50.815 18.984c.062.002.123.016.185.016 3.309 0 6-2.691 6-6s-2.691-6-6-6-6 2.691-6 6c0 .063.013.123.015.186l.172-.143c1.638-1.365 4.011-1.257 5.52.25 1.508 1.508 1.616 3.881.25 5.52z"></path><path d="m20.797 49.304c.12.556.203 1.12.203 1.696 0 4.411-3.589 8-8 8s-8-3.589-8-8 3.589-8 8-8c.576 0 1.14.083 1.696.203l1.415-1.698c-.997-.328-2.037-.505-3.111-.505-5.514 0-10 4.486-10 10s4.486 10 10 10 10-4.486 10-10c0-1.074-.177-2.113-.505-3.111z"></path><path d="m43.203 14.696c-.12-.557-.203-1.121-.203-1.696 0-4.411 3.589-8 8-8s8 3.589 8 8-3.589 8-8 8c-.579 0-1.149-.069-1.707-.19l-1.405 1.685c.998.328 2.038.505 3.112.505 5.514 0 10-4.486 10-10s-4.486-10-10-10-10 4.486-10 10c0 1.074.177 2.114.505 3.111z"></path><path d="m47.812 51.914c-.927 0-1.856-.316-2.625-.957l-.172-.143c-.002.063-.015.123-.015.186 0 3.309 2.691 6 6 6s6-2.691 6-6-2.691-6-6-6c-.063 0-.123.013-.186.015l.143.172c1.366 1.639 1.258 4.012-.25 5.52-.801.801-1.846 1.207-2.895 1.207z"></path><path d="m49.293 49.293c.772-.772.827-1.987.128-2.826l-5.629-6.754c-1.8-2.161-2.792-4.9-2.792-7.713s.992-5.552 2.792-7.713l5.629-6.754c.699-.839.644-2.054-.128-2.826s-1.988-.827-2.826-.128l-6.754 5.629c-2.161 1.8-4.9 2.792-7.713 2.792s-5.552-.992-7.713-2.792l-6.754-5.629c-.838-.699-2.054-.644-2.826.128s-.827 1.987-.128 2.826l5.629 6.754c1.8 2.161 2.792 4.9 2.792 7.713s-.992 5.552-2.792 7.713l-5.629 6.754c-.699.839-.644 2.054.128 2.826s1.987.827 2.826.128l6.754-5.629c2.161-1.8 4.9-2.792 7.713-2.792s5.552.992 7.713 2.792l6.754 5.629c.838.699 2.054.644 2.826-.128zm-17.293-12.293c-2.757 0-5-2.243-5-5s2.243-5 5-5 5 2.243 5 5-2.243 5-5 5z"></path><path d="m51 41c-1.074 0-2.114.177-3.111.505l1.415 1.698c.556-.12 1.12-.203 1.696-.203 4.411 0 8 3.589 8 8s-3.589 8-8 8-8-3.589-8-8c0-.575.083-1.139.203-1.696l-1.699-1.416c-.327.998-.504 2.038-.504 3.112 0 5.514 4.486 10 10 10s10-4.486 10-10-4.486-10-10-10z"></path><circle cx="32" cy="32" r="3"></circle><path d="m13.186 45.015c-.063-.002-.123-.015-.186-.015-3.309 0-6 2.691-6 6s2.691 6 6 6 6-2.691 6-6c0-.063-.013-.123-.015-.186l-.172.143c-1.639 1.365-4.011 1.258-5.52-.25-1.508-1.508-1.616-3.881-.25-5.52z"></path></g></svg>