<svg xmlns="http://www.w3.org/2000/svg" height="487pt" viewBox="-12 0 487 487.8" width="487pt"><path d="m231.398438 37.921875c3.867187 0 7-3.132813 7-7v-23.921875c0-3.867188-3.132813-7-7-7-3.863282 0-7 3.132812-7 7v23.921875c0 3.867187 3.136718 7 7 7zm0 0"></path><path d="m310.984375 117.800781c0 3.863281 3.132813 7 7 7h23.640625c3.863281 0 7-3.136719 7-7 0-3.867187-3.136719-7-7-7h-23.640625c-3.867187 0-7 3.132813-7 7zm0 0"></path><path d="m121.175781 124.800781h23.640625c3.867188 0 7-3.136719 7-7 0-3.867187-3.132812-7-7-7h-23.640625c-3.863281 0-7 3.132813-7 7 0 3.863281 3.136719 7 7 7zm0 0"></path><path d="m291.78125 62.699219c1.855469.003906 3.636719-.734375 4.949219-2.050781l16.519531-16.519532c2.734375-2.734375 2.734375-7.164062 0-9.898437s-7.167969-2.734375-9.898438 0l-16.519531 16.523437c-2.003906 2-2.601562 5.011719-1.519531 7.625 1.085938 2.617188 3.636719 4.324219 6.46875 4.324219zm0 0"></path><path d="m166.070312 60.652344c2.734376 2.734375 7.164063 2.734375 9.898438 0s2.734375-7.167969 0-9.898438l-16.519531-16.519531c-2.730469-2.734375-7.164063-2.734375-9.898438 0s-2.734375 7.164063 0 9.898437zm0 0"></path><path d="m236.363281 134.8125c0 2.738281-2.222656 4.960938-4.964843 4.960938-2.738282 0-4.960938-2.222657-4.960938-4.960938 0-2.742188 2.222656-4.964844 4.960938-4.964844 2.742187 0 4.964843 2.222656 4.964843 4.964844zm0 0"></path><path d="m222.039062 228.800781h18.722657c5.183593-.042969 9.5625-3.867187 10.296875-9h-39.324219c.738281 5.136719 5.117187 8.960938 10.304687 9zm0 0"></path><path d="m179.933594 136.015625c4.511718 13.65625 14.308594 24.941406 27.195312 31.335937.070313.035157.082032.082032.152344.121094 2.542969 1.117188 4.164062 3.652344 4.117188 6.425782v10.902343h13v-32.382812c-8.453126-3.359375-13.332032-12.25-11.621094-21.1875 1.707031-8.933594 9.523437-15.398438 18.621094-15.398438 9.101562 0 16.917968 6.464844 18.625 15.398438 1.710937 8.9375-3.167969 17.828125-11.625 21.1875v32.382812h13v-10.902343c-.042969-2.773438 1.578124-5.308594 4.121093-6.425782.070313-.039062.023438-.085937.097657-.121094 10.511718-5.273437 19.039062-13.800781 24.3125-24.3125 10.949218-21.964843 5.785156-48.546874-12.59375-64.816406-18.378907-16.269531-45.394532-18.164062-65.867188-4.628906-20.472656 13.539062-29.304688 39.136719-21.53125 62.421875zm0 0"></path><path d="m211.398438 198.800781h40v7h-40zm0 0"></path><path d="m50.515625 320.882812c3.871094-.019531 7-3.167968 7-7.039062.007813-12.707031 10.292969-23.007812 23-23.042969h143.882813v21.398438c0 3.867187 3.136718 7 7 7 3.867187 0 7-3.132813 7-7v-21.398438h143.886718c12.707032.035157 22.988282 10.335938 23 23.042969.003906 3.863281 3.140625 6.996094 7.007813 6.992188 3.863281-.003907 6.996093-3.140626 6.992187-7.003907-.019531-20.433593-16.566406-36.996093-37-37.03125h-143.886718v-21.785156c0-3.863281-3.132813-7-7-7-3.863282 0-7 3.136719-7 7v21.785156h-143.882813c-20.433594.042969-36.980469 16.609375-37 37.042969-.003906 3.871094 3.125 7.019531 7 7.039062zm0 0"></path><path d="m255.183594 368.898438c0 13.132812-10.648438 23.78125-23.785156 23.78125-13.132813 0-23.78125-10.648438-23.78125-23.78125 0-13.136719 10.648437-23.785157 23.78125-23.785157 13.136718 0 23.785156 10.648438 23.785156 23.785157zm0 0"></path><path d="m264.082031 419.351562c-2.027343 2.339844-4.296875 4.449219-6.777343 6.300782-18.222657 13.433594-43.691407 10.695312-58.648438-6.300782-10.027344 1.601563-17.371094 10.308594-17.257812 20.464844v47.984375h100v-47.984375c.089843-10.167968-7.273438-18.871094-17.316407-20.464844zm0 0"></path><path d="m436.070312 368.898438c0 13.132812-10.648437 23.78125-23.785156 23.78125-13.132812 0-23.78125-10.648438-23.78125-23.78125 0-13.136719 10.648438-23.785157 23.78125-23.785157 13.136719 0 23.785156 10.648438 23.785156 23.785157zm0 0"></path><path d="m445.023438 419.351562c-2.035157 2.335938-4.3125 4.445313-6.796876 6.296876-18.386718 13.429687-43.964843 10.703124-59.105468-6.296876-10.128906 1.554688-17.632813 10.222657-17.722656 20.464844v47.984375h101v-47.984375c.066406-10.175781-7.320313-18.875-17.375-20.464844zm0 0"></path><path d="m74.296875 368.898438c0 13.132812-10.648437 23.78125-23.78125 23.78125-13.136719 0-23.785156-10.648438-23.785156-23.78125 0-13.136719 10.648437-23.785157 23.785156-23.785157 13.132813 0 23.78125 10.648438 23.78125 23.785157zm0 0"></path><path d="m83.640625 419.351562c-2.105469 2.34375-4.453125 4.453126-7 6.300782-18.285156 13.429687-43.792969 10.699218-58.816406-6.300782-10.0625 1.585938-17.464844 10.277344-17.425781 20.464844v47.984375h101v-47.984375c-.105469-10.25-7.625-18.914062-17.757813-20.464844zm0 0"></path></svg>