<svg xmlns="http://www.w3.org/2000/svg" id="Capa_1" height="512" viewBox="0 0 511.12 511.12" width="512"><g><g><g><path d="m85.46 64.24 64.56 64.57c25.02-20.86 56.28-34.47 90.54-37.58v-91.23c-57.76 3.3-111.92 25.73-155.1 64.24zm95.1 116.32v150h150v-150zm-116.32-95.1c-38.51 43.18-60.94 97.34-64.24 155.1h91.23c3.11-34.26 16.72-65.52 37.58-90.54zm106.55 275.1c23.19 18.75 52.69 30 84.77 30s61.58-11.25 84.77-30zm249.1-90c-3.11 34.26-16.72 65.52-37.58 90.54l64.57 64.56c38.51-43.18 60.94-97.34 64.24-155.1zm26.99-185.1-64.57 64.56c20.86 25.02 34.47 56.28 37.58 90.54h91.23c-3.3-57.76-25.73-111.92-64.24-155.1zm-86.32 85.33v169.54c18.75-23.19 30-52.69 30-84.77s-11.25-61.58-30-84.77zm.54 211.52c-25.02 20.86-56.28 34.47-90.54 37.58v91.23c57.76-3.3 111.92-25.73 155.1-64.24zm-211.08 0-64.57 64.57c43.19 38.5 97.34 60.94 155.11 64.24v-91.23c-34.26-3.11-65.52-16.72-90.54-37.58zm-29.46-126.75c0 32.08 11.25 61.58 30 84.77v-169.54c-18.75 23.19-30 52.69-30 84.77zm-29.33 15h-91.23c3.3 57.77 25.74 111.92 64.24 155.11l64.57-64.57c-20.86-25.02-34.47-56.28-37.58-90.54zm179.33-270.56v91.23c34.26 3.11 65.52 16.72 90.54 37.58l64.56-64.57c-43.18-38.51-97.34-60.94-155.1-64.24zm-15 120.56c-32.08 0-61.58 11.25-84.77 30h169.54c-23.19-18.75-52.69-30-84.77-30z"></path></g></g></g></svg>