<svg xmlns="http://www.w3.org/2000/svg" id="Solid" viewBox="0 0 512 512" width="512" height="512"><path d="M355.656,205.224l62.492-36.083a192.64,192.64,0,0,0-89-74.714l-24.684,67.8A120.766,120.766,0,0,1,355.656,205.224Z"></path><path d="M136.7,284.913A120.821,120.821,0,0,1,136,272a119.265,119.265,0,0,1,12.325-52.93L85.855,183A192.015,192.015,0,0,0,64,272a194.168,194.168,0,0,0,1.676,25.434Z"></path><path d="M139.47,300.67,36.89,318.755a224.151,224.151,0,0,0,69.089,119.583l66.971-79.8A120.042,120.042,0,0,1,139.47,300.67Z"></path><path d="M138.817,424.1A192.155,192.155,0,0,0,248,463.828v-72.1a119.319,119.319,0,0,1-62.8-22.9Z"></path><path d="M207.539,162.232l-24.684-67.8a192.635,192.635,0,0,0-89,74.714l62.492,36.083A120.766,120.766,0,0,1,207.539,162.232Z"></path><path d="M264,391.727v72.1A192.155,192.155,0,0,0,373.183,424.1L326.8,368.825A119.319,119.319,0,0,1,264,391.727Z"></path><path d="M256,152a119.679,119.679,0,0,1,33.432,4.744l35.635-97.89a225.173,225.173,0,0,0-138.134,0l35.635,97.89A119.679,119.679,0,0,1,256,152Z"></path><path d="M360,272A104,104,0,1,0,256,376,104.118,104.118,0,0,0,360,272ZM256,344a72,72,0,1,1,72-72A72.081,72.081,0,0,1,256,344Z"></path><circle cx="256" cy="272" r="56"></circle><path d="M339.05,358.534l66.971,79.8A224.151,224.151,0,0,0,475.11,318.755L372.53,300.67A120.042,120.042,0,0,1,339.05,358.534Z"></path><path d="M376,272a120.821,120.821,0,0,1-.7,12.913l71.02,12.521A194.168,194.168,0,0,0,448,272a192.018,192.018,0,0,0-21.854-89L363.675,219.07A119.265,119.265,0,0,1,376,272Z"></path></svg>